<svg xmlns="http://www.w3.org/2000/svg" xmlns:xlink="http://www.w3.org/1999/xlink" width="789.488" height="721" viewBox="0 0 789.488 721">
  <defs>
    <linearGradient id="linear-gradient" y1="0.071" x2="1" y2="1" gradientUnits="objectBoundingBox">
      <stop offset="0" stop-color="#574bb0"/>
      <stop offset="1" stop-color="#7a24ae"/>
    </linearGradient>
  </defs>
  <g id="Group_475" data-name="Group 475" transform="translate(-5456 -831)">
    <rect id="Rectangle_143" data-name="Rectangle 143" width="789" height="721" transform="translate(5456 831)" fill="none"/>
    <g id="Group_469" data-name="Group 469" transform="translate(0 -21)">
      <g id="Rectangle_140" data-name="Rectangle 140" transform="translate(5456 861)" stroke="rgba(255,255,255,0.28)" stroke-width="6" fill="url(#linear-gradient)">
        <rect width="40" height="117" rx="20" stroke="none"/>
        <rect x="3" y="3" width="34" height="111" rx="17" fill="none"/>
      </g>
      <path id="Path_682" data-name="Path 682" d="M23.562-22.974c-.462-4.326-3.4-8.358-9.66-8.358-7.77,0-11,5.544-11,15.54C2.9-6.3,5.166.084,14.238.084c6.552,0,10.206-4.326,10.206-10.248,0-6.384-3.822-10-9.282-10a8.153,8.153,0,0,0-7.14,3.57c.084-7.056,1.848-9.912,5.67-9.912,2.646,0,3.864,1.26,4.41,3.528ZM13.818-15.33c3.4,0,5.04,2.142,5.04,5.292s-1.89,5.124-4.914,5.124c-3.444,0-5.376-2.058-5.376-5.334C8.568-13.734,11.088-15.33,13.818-15.33ZM28.434-23.1c0,4.41,2.856,6.846,6.678,6.846S41.79-18.69,41.79-23.1c0-4.368-2.856-6.8-6.678-6.8S28.434-27.468,28.434-23.1Zm6.636-3.276c1.47,0,2.394.966,2.394,3.276s-.924,3.318-2.394,3.318c-1.428,0-2.31-1.008-2.31-3.318S33.642-26.376,35.07-26.376ZM33.18,0h5.712L55.4-29.4H49.644ZM46.872-6.342C46.872-1.89,49.728.5,53.55.5c3.78,0,6.594-2.394,6.594-6.846,0-4.41-2.814-6.8-6.594-6.8C49.728-13.146,46.872-10.752,46.872-6.342Zm6.636-3.276c1.428,0,2.352.966,2.352,3.276,0,2.352-.924,3.318-2.352,3.318-1.47,0-2.394-.966-2.394-3.318C51.114-8.652,52.038-9.618,53.508-9.618Z" transform="translate(5532 909)" fill="#6b34ae"/>
      <path id="Path_683" data-name="Path 683" d="M1.248-19.264H7.2V0h3.648V-19.264h5.92V-22.24H1.248Zm26.624,4.416c2.72,0,4.864,1.728,4.928,4.448H23.04A4.8,4.8,0,0,1,27.872-14.848Zm8.256,9.6H32.192a4.269,4.269,0,0,1-4.16,2.464,4.85,4.85,0,0,1-5.024-4.672H36.48a11.253,11.253,0,0,0,.128-1.792c0-5.184-3.552-8.672-8.576-8.672-5.216,0-8.8,3.552-8.8,9.088s3.744,9.12,8.8,9.12A8.057,8.057,0,0,0,36.128-5.248ZM38.976-8.9c0,5.44,3.68,9.184,8.256,9.184a7.589,7.589,0,0,0,6.176-2.912V0h3.68V-17.632h-3.68v2.56A7.505,7.505,0,0,0,47.3-17.92C42.656-17.92,38.976-14.336,38.976-8.9Zm14.432.064c0,3.808-2.592,5.952-5.344,5.952-2.72,0-5.344-2.208-5.344-6.016s2.624-5.856,5.344-5.856C50.816-14.752,53.408-12.608,53.408-8.832ZM86.88,0H90.5V-10.4c0-4.928-3.136-7.52-7.264-7.52a6.9,6.9,0,0,0-6.144,3.488,6.8,6.8,0,0,0-6.336-3.488,6.715,6.715,0,0,0-5.216,2.3v-2.016H61.888V0h3.648V-9.856c0-3.232,1.76-4.9,4.448-4.9,2.656,0,4.416,1.664,4.416,4.9V0h3.616V-9.856c0-3.232,1.76-4.9,4.448-4.9,2.656,0,4.416,1.664,4.416,4.9Z" transform="translate(5532 964)" fill="#6938af"/>
    </g>
    <g id="Group_473" data-name="Group 473" transform="translate(0 376)">
      <g id="Rectangle_140-2" data-name="Rectangle 140" transform="translate(5456 861)" stroke="rgba(255,255,255,0.28)" stroke-width="6" fill="url(#linear-gradient)">
        <rect width="70" height="117" rx="23" stroke="none"/>
        <rect x="3" y="3" width="64" height="111" rx="20" fill="none"/>
      </g>
      <path id="Path_677" data-name="Path 677" d="M5.586,0h6.048V-30.618H1.512V-25.2H5.586ZM17.43-15.708c0,8.946,2.688,15.624,11.34,15.624S40.11-6.762,40.11-15.708c0-8.862-2.688-15.5-11.34-15.5S17.43-24.57,17.43-15.708Zm16.884,0c0,5.46-.588,10.164-5.544,10.164s-5.544-4.7-5.544-10.164c0-5.25.588-10.038,5.544-10.038S34.314-20.958,34.314-15.708ZM43.89-23.1c0,4.41,2.856,6.846,6.678,6.846s6.678-2.436,6.678-6.846c0-4.368-2.856-6.8-6.678-6.8S43.89-27.468,43.89-23.1Zm6.636-3.276c1.47,0,2.394.966,2.394,3.276S52-19.782,50.526-19.782c-1.428,0-2.31-1.008-2.31-3.318S49.1-26.376,50.526-26.376ZM48.636,0h5.712L70.854-29.4H65.1ZM62.328-6.342C62.328-1.89,65.184.5,69.006.5,72.786.5,75.6-1.89,75.6-6.342c0-4.41-2.814-6.8-6.594-6.8C65.184-13.146,62.328-10.752,62.328-6.342Zm6.636-3.276c1.428,0,2.352.966,2.352,3.276,0,2.352-.924,3.318-2.352,3.318-1.47,0-2.394-.966-2.394-3.318C66.57-8.652,67.494-9.618,68.964-9.618Z" transform="translate(5562 909)" fill="#6b34ae"/>
      <path id="Path_676" data-name="Path 676" d="M2.4-22.24V0H13.568V-2.944H6.048v-19.3ZM16.608,0h3.648V-17.632H16.608Zm1.856-19.968a2.3,2.3,0,0,0,2.3-2.336,2.3,2.3,0,0,0-2.3-2.336A2.309,2.309,0,0,0,16.128-22.3,2.309,2.309,0,0,0,18.464-19.968ZM23.84-8.9c0,5.44,3.68,9.184,8.224,9.184A7.8,7.8,0,0,0,38.272-2.56V8.384h3.68V-17.632h-3.68v2.56a7.437,7.437,0,0,0-6.08-2.848C27.52-17.92,23.84-14.336,23.84-8.9Zm14.432.064c0,3.808-2.592,5.952-5.344,5.952-2.72,0-5.344-2.208-5.344-6.016s2.624-5.856,5.344-5.856C35.68-14.752,38.272-12.608,38.272-8.832Zm24.448-8.8H59.072v9.824c0,3.232-1.76,4.9-4.448,4.9-2.656,0-4.416-1.664-4.416-4.9v-9.824H46.592V-7.264c0,4.928,3.136,7.52,7.264,7.52a6.563,6.563,0,0,0,5.216-2.368V0H62.72ZM67.52,0h3.648V-17.632H67.52Zm1.856-19.968a2.3,2.3,0,0,0,2.3-2.336,2.3,2.3,0,0,0-2.3-2.336A2.309,2.309,0,0,0,67.04-22.3,2.309,2.309,0,0,0,69.376-19.968ZM74.752-8.9c0,5.44,3.68,9.184,8.32,9.184a7.31,7.31,0,0,0,6.112-2.944V0h3.68V-23.68h-3.68v8.512A8.121,8.121,0,0,0,83.1-17.92C78.432-17.92,74.752-14.336,74.752-8.9Zm14.432.064c0,3.808-2.592,5.952-5.344,5.952C81.12-2.88,78.5-5.088,78.5-8.9s2.624-5.856,5.344-5.856C86.592-14.752,89.184-12.608,89.184-8.832ZM97.664,0h3.648V-17.632H97.664ZM99.52-19.968a2.3,2.3,0,0,0,2.3-2.336,2.3,2.3,0,0,0-2.3-2.336A2.309,2.309,0,0,0,97.184-22.3,2.309,2.309,0,0,0,99.52-19.968ZM106.688-4.9c0,3.584,1.952,4.9,5.088,4.9h2.88V-3.04h-2.24c-1.536,0-2.048-.544-2.048-1.856v-9.76h4.288v-2.976h-4.288v-4.384h-3.68v4.384h-2.08v2.976h2.08Zm18.272.7L120-17.632h-4.064L122.88-.288,119.3,8.288h3.776l10.816-25.92h-3.776Zm41.5-6.976a11.087,11.087,0,0,0-11.36-11.36,11.124,11.124,0,0,0-11.36,11.36A11.132,11.132,0,0,0,155.1.224,11.094,11.094,0,0,0,166.464-11.168Zm-18.976,0c0-5.024,3.2-8.16,7.616-8.16s7.616,3.136,7.616,8.16-3.2,8.224-7.616,8.224S147.488-6.144,147.488-11.168ZM170.5,0h3.68V-14.656h3.264v-2.976h-3.264V-18.88c0-2.016.768-2.784,3.008-2.784V-24.7c-4.608,0-6.688,1.76-6.688,5.824v1.248h-2.08v2.976h2.08ZM181.12,0h3.68V-14.656h3.264v-2.976H184.8V-18.88c0-2.016.768-2.784,3.008-2.784V-24.7c-4.608,0-6.688,1.76-6.688,5.824v1.248h-2.08v2.976h2.08Zm17.6-14.848c2.72,0,4.864,1.728,4.928,4.448h-9.76A4.8,4.8,0,0,1,198.72-14.848Zm8.256,9.6H203.04a4.269,4.269,0,0,1-4.16,2.464,4.85,4.85,0,0,1-5.024-4.672h13.472a11.254,11.254,0,0,0,.128-1.792c0-5.184-3.552-8.672-8.576-8.672-5.216,0-8.8,3.552-8.8,9.088s3.744,9.12,8.8,9.12A8.057,8.057,0,0,0,206.976-5.248Zm7.712-4.032c0-3.744,1.664-4.864,4.352-4.864h.928V-17.92a5.743,5.743,0,0,0-5.28,2.848v-2.56H211.04V0h3.648ZM223.328,0h3.648V-17.632h-3.648Zm1.856-19.968a2.3,2.3,0,0,0,2.3-2.336,2.3,2.3,0,0,0-2.3-2.336,2.309,2.309,0,0,0-2.336,2.336A2.309,2.309,0,0,0,225.184-19.968ZM244.288,0H247.9V-10.4c0-4.928-3.1-7.52-7.232-7.52a6.783,6.783,0,0,0-5.248,2.3v-2.016h-3.648V0h3.648V-9.856c0-3.232,1.76-4.9,4.448-4.9,2.656,0,4.416,1.664,4.416,4.9Zm7.04-8.9c0,5.44,3.68,9.184,8.32,9.184a7.569,7.569,0,0,0,6.112-2.944V.288c0,3.52-2.112,5.248-4.928,5.248-2.528,0-4.48-1.248-5.024-3.072h-3.616c.448,3.9,3.936,6.24,8.64,6.24,5.5,0,8.608-3.616,8.608-8.416v-17.92h-3.68v2.56a7.469,7.469,0,0,0-6.112-2.848C255.008-17.92,251.328-14.336,251.328-8.9Zm14.432.064c0,3.808-2.592,5.952-5.344,5.952-2.72,0-5.344-2.208-5.344-6.016s2.624-5.856,5.344-5.856C263.168-14.752,265.76-12.608,265.76-8.832Z" transform="translate(5562 964)" fill="#6938af"/>
    </g>
    <g id="Group_474" data-name="Group 474" transform="translate(0 574)">
      <g id="Rectangle_140-3" data-name="Rectangle 140" transform="translate(5456 861)" stroke="rgba(255,255,255,0.28)" stroke-width="6" fill="url(#linear-gradient)">
        <rect width="105" height="117" rx="23" stroke="none"/>
        <rect x="3" y="3" width="99" height="111" rx="20" fill="none"/>
      </g>
      <path id="Path_678" data-name="Path 678" d="M5.586,0h6.048V-30.618H1.512V-25.2H5.586Zm13.44-30.7v17.976h5.628a4.578,4.578,0,0,1,4.62-3.234c3.318,0,5.04,1.89,5.04,5.334,0,3.234-1.554,5.67-5,5.67-2.856,0-4.578-1.554-5.082-3.7H18.522C19.026-3.654,22.806,0,29.4,0c6.972,0,10.584-4.452,10.584-10.71,0-4.746-2.436-10.122-9.576-10.122A7.99,7.99,0,0,0,24.4-18.354v-7.182H38.01V-30.7Zm24.78,7.6c0,4.41,2.856,6.846,6.678,6.846s6.678-2.436,6.678-6.846c0-4.368-2.856-6.8-6.678-6.8S43.806-27.468,43.806-23.1Zm6.636-3.276c1.47,0,2.394.966,2.394,3.276s-.924,3.318-2.394,3.318c-1.428,0-2.31-1.008-2.31-3.318S49.014-26.376,50.442-26.376ZM48.552,0h5.712L70.77-29.4H65.016ZM62.244-6.342C62.244-1.89,65.1.5,68.922.5c3.78,0,6.594-2.394,6.594-6.846,0-4.41-2.814-6.8-6.594-6.8C65.1-13.146,62.244-10.752,62.244-6.342ZM68.88-9.618c1.428,0,2.352.966,2.352,3.276,0,2.352-.924,3.318-2.352,3.318-1.47,0-2.394-.966-2.394-3.318C66.486-8.652,67.41-9.618,68.88-9.618Z" transform="translate(5597 905)" fill="#6b34ae"/>
      <path id="Path_679" data-name="Path 679" d="M14.688-22.272H2.4V0H14.688V-2.976H6.048V-9.792h7.68v-2.976H6.048V-19.3h8.64ZM17.952-8.9c0,5.44,3.68,9.184,8.256,9.184a7.589,7.589,0,0,0,6.176-2.912V0h3.68V-17.632h-3.68v2.56a7.505,7.505,0,0,0-6.112-2.848C21.632-17.92,17.952-14.336,17.952-8.9Zm14.432.064c0,3.808-2.592,5.952-5.344,5.952C24.32-2.88,21.7-5.088,21.7-8.9s2.624-5.856,5.344-5.856C29.792-14.752,32.384-12.608,32.384-8.832ZM44.512-9.28c0-3.744,1.664-4.864,4.352-4.864h.928V-17.92a5.743,5.743,0,0,0-5.28,2.848v-2.56H40.864V0h3.648ZM53.152,0H56.8V-23.68H53.152ZM68.544-4.192l-4.96-13.44H59.52L66.464-.288,62.88,8.288h3.776l10.816-25.92H73.7ZM103.552,0h3.84L99.424-22.272H95.2L87.232,0H91.04l1.6-4.544h9.312Zm-2.624-7.52H93.664l3.648-10.336Zm8.7-1.376c0,5.44,3.68,9.184,8.32,9.184a7.31,7.31,0,0,0,6.112-2.944V0h3.68V-23.68h-3.68v8.512a8.121,8.121,0,0,0-6.08-2.752C113.312-17.92,109.632-14.336,109.632-8.9Zm14.432.064c0,3.808-2.592,5.952-5.344,5.952-2.72,0-5.344-2.208-5.344-6.016s2.624-5.856,5.344-5.856C121.472-14.752,124.064-12.608,124.064-8.832Zm25.28,0a8.7,8.7,0,0,0-8.992-9.088,8.7,8.7,0,0,0-8.992,9.088c0,5.536,3.808,9.12,8.832,9.12A8.832,8.832,0,0,0,149.344-8.832Zm-14.272,0c0-4,2.464-5.92,5.216-5.92,2.72,0,5.312,1.92,5.312,5.92s-2.688,5.952-5.408,5.952C137.44-2.88,135.072-4.832,135.072-8.832Zm21.536-6.208v-2.592H152.96V8.384h3.648V-2.56A7.971,7.971,0,0,0,162.752.288c4.64,0,8.288-3.744,8.288-9.184s-3.648-9.024-8.288-9.024A7.693,7.693,0,0,0,156.608-15.04ZM167.328-8.9c0,3.808-2.624,6.016-5.376,6.016-2.72,0-5.344-2.144-5.344-5.952,0-3.776,2.624-5.92,5.344-5.92C164.7-14.752,167.328-12.7,167.328-8.9Zm7.9,4c0,3.584,1.952,4.9,5.088,4.9h2.88V-3.04h-2.24c-1.536,0-2.048-.544-2.048-1.856v-9.76H183.2v-2.976h-4.288v-4.384h-3.68v4.384h-2.08v2.976h2.08Zm18.752-9.952c2.72,0,4.864,1.728,4.928,4.448h-9.76A4.8,4.8,0,0,1,193.984-14.848Zm8.256,9.6H198.3a4.269,4.269,0,0,1-4.16,2.464,4.85,4.85,0,0,1-5.024-4.672h13.472a11.254,11.254,0,0,0,.128-1.792c0-5.184-3.552-8.672-8.576-8.672-5.216,0-8.8,3.552-8.8,9.088s3.744,9.12,8.8,9.12A8.057,8.057,0,0,0,202.24-5.248Zm7.712-4.032c0-3.744,1.664-4.864,4.352-4.864h.928V-17.92a5.743,5.743,0,0,0-5.28,2.848v-2.56H206.3V0h3.648Zm21.792,4.352C231.552-11.3,221.6-9.312,221.6-12.864c0-1.184,1.024-1.984,2.976-1.984,1.984,0,3.168,1.056,3.3,2.592h3.648c-.192-3.52-2.816-5.664-6.816-5.664-4.16,0-6.784,2.272-6.784,5.088,0,6.464,10.24,4.48,10.24,7.936,0,1.216-1.12,2.112-3.232,2.112-2.016,0-3.392-1.184-3.52-2.624h-3.776c.16,3.2,3.136,5.7,7.36,5.7C229.152.288,231.744-1.952,231.744-4.928Z" transform="translate(5597 960)" fill="#6938af"/>
    </g>
    <g id="Group_470" data-name="Group 470" transform="translate(0 15)">
      <g id="Rectangle_142" data-name="Rectangle 142" transform="translate(5456 1023)" stroke="rgba(255,255,255,0.28)" stroke-width="6" fill="url(#linear-gradient)">
        <rect width="483" height="117" rx="23" stroke="none"/>
        <rect x="3" y="3" width="477" height="111" rx="20" fill="none"/>
      </g>
      <path id="Path_680" data-name="Path 680" d="M23.562-22.974c-.462-4.326-3.4-8.358-9.66-8.358-7.77,0-11,5.544-11,15.54C2.9-6.3,5.166.084,14.238.084c6.552,0,10.206-4.326,10.206-10.248,0-6.384-3.822-10-9.282-10a8.153,8.153,0,0,0-7.14,3.57c.084-7.056,1.848-9.912,5.67-9.912,2.646,0,3.864,1.26,4.41,3.528ZM13.818-15.33c3.4,0,5.04,2.142,5.04,5.292s-1.89,5.124-4.914,5.124c-3.444,0-5.376-2.058-5.376-5.334C8.568-13.734,11.088-15.33,13.818-15.33ZM30.45-8.61C30.786-4.116,33.894.042,40.4.042,48.51.042,50.82-5.586,50.82-16c0-9.7-2.562-15.33-10.878-15.33-6.468,0-10.332,4.032-10.332,10.164,0,6.468,4.242,9.786,9.534,9.786a7.926,7.926,0,0,0,6.468-2.856c0,6.888-1.512,9.45-4.956,9.45A4.349,4.349,0,0,1,35.91-8.61Zm9.912-7.56c-3.57,0-5.124-2.268-5.124-5.04,0-3.066,1.848-5.124,4.914-5.124,2.982,0,4.914,1.848,4.914,5.208C45.066-18.144,43.3-16.17,40.362-16.17ZM54.726-23.1c0,4.41,2.856,6.846,6.678,6.846s6.678-2.436,6.678-6.846c0-4.368-2.856-6.8-6.678-6.8S54.726-27.468,54.726-23.1Zm6.636-3.276c1.47,0,2.394.966,2.394,3.276s-.924,3.318-2.394,3.318c-1.428,0-2.31-1.008-2.31-3.318S59.934-26.376,61.362-26.376ZM59.472,0h5.712L81.69-29.4H75.936ZM73.164-6.342C73.164-1.89,76.02.5,79.842.5c3.78,0,6.594-2.394,6.594-6.846,0-4.41-2.814-6.8-6.594-6.8C76.02-13.146,73.164-10.752,73.164-6.342ZM79.8-9.618c1.428,0,2.352.966,2.352,3.276,0,2.352-.924,3.318-2.352,3.318-1.47,0-2.394-.966-2.394-3.318C77.406-8.652,78.33-9.618,79.8-9.618Z" transform="translate(5978 1075)" fill="#6b34ae"/>
      <path id="Path_681" data-name="Path 681" d="M17.408-6.3c0-8.128-11.776-4.992-11.776-10.016,0-2.144,1.632-3.168,3.744-3.1,2.3.064,3.616,1.44,3.744,2.944h4.032c-.32-3.808-3.328-6.048-7.584-6.048-4.544,0-7.648,2.432-7.648,6.336,0,8.192,11.808,4.7,11.808,10.08,0,1.888-1.44,3.264-4,3.264C7.2-2.848,5.92-4.32,5.76-6.144h-3.9C1.856-2.208,5.28.224,9.728.224,14.688.224,17.408-2.976,17.408-6.3ZM22.3-4.9c0,3.584,1.952,4.9,5.088,4.9h2.88V-3.04h-2.24c-1.536,0-2.048-.544-2.048-1.856v-9.76h4.288v-2.976H25.984v-4.384H22.3v4.384h-2.08v2.976H22.3Zm10.112-4c0,5.44,3.68,9.184,8.256,9.184a7.589,7.589,0,0,0,6.176-2.912V0h3.68V-17.632h-3.68v2.56a7.505,7.505,0,0,0-6.112-2.848C36.1-17.92,32.416-14.336,32.416-8.9Zm14.432.064c0,3.808-2.592,5.952-5.344,5.952-2.72,0-5.344-2.208-5.344-6.016s2.624-5.856,5.344-5.856C44.256-14.752,46.848-12.608,46.848-8.832ZM55.328,0h3.648V-7.584L65.5,0h4.928L62.3-8.8l8.128-8.832H65.376l-6.4,7.712V-23.68H55.328ZM73.056,0H76.7V-17.632H73.056Zm1.856-19.968a2.3,2.3,0,0,0,2.3-2.336,2.3,2.3,0,0,0-2.3-2.336A2.309,2.309,0,0,0,72.576-22.3,2.309,2.309,0,0,0,74.912-19.968ZM94.016,0h3.616V-10.4c0-4.928-3.1-7.52-7.232-7.52a6.783,6.783,0,0,0-5.248,2.3v-2.016H81.5V0h3.648V-9.856c0-3.232,1.76-4.9,4.448-4.9,2.656,0,4.416,1.664,4.416,4.9Zm7.04-8.9c0,5.44,3.68,9.184,8.32,9.184a7.569,7.569,0,0,0,6.112-2.944V.288c0,3.52-2.112,5.248-4.928,5.248-2.528,0-4.48-1.248-5.024-3.072H101.92c.448,3.9,3.936,6.24,8.64,6.24,5.5,0,8.608-3.616,8.608-8.416v-17.92h-3.68v2.56a7.469,7.469,0,0,0-6.112-2.848C104.736-17.92,101.056-14.336,101.056-8.9Zm14.432.064c0,3.808-2.592,5.952-5.344,5.952-2.72,0-5.344-2.208-5.344-6.016s2.624-5.856,5.344-5.856C112.9-14.752,115.488-12.608,115.488-8.832ZM144.1-15.584c0,2.208-1.28,3.776-4.128,3.776h-4.032v-7.456h4.032C142.816-19.264,144.1-17.824,144.1-15.584ZM132.288-22.24V0h3.648V-8.9h2.784L143.84,0h4.352l-5.5-9.216a6.33,6.33,0,0,0,5.152-6.368c0-3.616-2.592-6.656-7.872-6.656Zm27.648,7.392c2.72,0,4.864,1.728,4.928,4.448H155.1A4.8,4.8,0,0,1,159.936-14.848Zm8.256,9.6h-3.936a4.269,4.269,0,0,1-4.16,2.464,4.85,4.85,0,0,1-5.024-4.672h13.472a11.254,11.254,0,0,0,.128-1.792c0-5.184-3.552-8.672-8.576-8.672-5.216,0-8.8,3.552-8.8,9.088s3.744,9.12,8.8,9.12A8.057,8.057,0,0,0,168.192-5.248ZM175.68,0h3.84l3.552-13.024L186.624,0h3.84l5.472-17.632h-3.584L188.7-3.52,185.12-17.632h-3.808L177.568-3.456l-3.68-14.176h-3.712Zm21.76-8.9c0,5.44,3.68,9.184,8.256,9.184a7.589,7.589,0,0,0,6.176-2.912V0h3.68V-17.632h-3.68v2.56a7.505,7.505,0,0,0-6.112-2.848C201.12-17.92,197.44-14.336,197.44-8.9Zm14.432.064c0,3.808-2.592,5.952-5.344,5.952-2.72,0-5.344-2.208-5.344-6.016s2.624-5.856,5.344-5.856C209.28-14.752,211.872-12.608,211.872-8.832ZM224-9.28c0-3.744,1.664-4.864,4.352-4.864h.928V-17.92A5.743,5.743,0,0,0,224-15.072v-2.56h-3.648V0H224Zm7.424.384c0,5.44,3.68,9.184,8.32,9.184a7.31,7.31,0,0,0,6.112-2.944V0h3.68V-23.68h-3.68v8.512a8.121,8.121,0,0,0-6.08-2.752C235.1-17.92,231.424-14.336,231.424-8.9Zm14.432.064c0,3.808-2.592,5.952-5.344,5.952-2.72,0-5.344-2.208-5.344-6.016s2.624-5.856,5.344-5.856C243.264-14.752,245.856-12.608,245.856-8.832Zm21.632,3.9c-.192-6.368-10.144-4.384-10.144-7.936,0-1.184,1.024-1.984,2.976-1.984,1.984,0,3.168,1.056,3.3,2.592h3.648c-.192-3.52-2.816-5.664-6.816-5.664-4.16,0-6.784,2.272-6.784,5.088,0,6.464,10.24,4.48,10.24,7.936,0,1.216-1.12,2.112-3.232,2.112-2.016,0-3.392-1.184-3.52-2.624h-3.776c.16,3.2,3.136,5.7,7.36,5.7C264.9.288,267.488-1.952,267.488-4.928Z" transform="translate(5978 1130)" fill="#6938af"/>
    </g>
  </g>
</svg>
