<svg width="262" height="53" viewBox="0 0 262 53" fill="none" xmlns="http://www.w3.org/2000/svg">
<path d="M15.2772 6.6958L53.5091 32.625L44.0539 46.508L5.82202 20.375L15.2772 6.6958Z" fill="url(#paint0_linear_93_1705)"/>
<path d="M53.5091 32.6248C50.2203 37.3206 39.1207 35.4831 28.6378 28.1331C17.9493 20.9873 12.1939 11.3915 15.2772 6.69556C18.5659 1.99976 29.6655 3.83726 40.1485 11.1873C50.8369 18.129 56.5923 27.929 53.5091 32.6248Z" fill="url(#paint1_linear_93_1705)"/>
<path d="M44.0539 46.3039C40.7652 50.9999 29.6656 49.1619 19.1826 41.8119C8.69975 34.4624 2.73885 25.0707 6.02765 20.1707C9.31635 15.4749 20.4159 17.3124 30.8989 24.6624C41.3818 32.0124 47.1371 41.6079 44.0539 46.3039Z" fill="url(#paint2_linear_93_1705)"/>
<path d="M53.5091 32.6248L44.0539 46.5078C40.7651 51.2038 29.6655 49.1628 19.1826 42.0168C17.1271 40.5878 15.2772 39.1578 13.4272 37.5248C14.8661 37.3207 16.716 36.504 18.5659 34.4623C21.8547 30.9915 23.4991 30.1748 24.9379 30.379C26.3768 30.379 28.0211 31.8082 30.6933 35.279C33.3654 38.7498 37.0652 39.7708 39.3263 37.9332C39.5318 37.729 39.7374 37.729 39.9429 37.5248C41.7928 36.0957 42.4095 35.4832 45.9038 28.9498C46.726 27.3165 49.6037 24.6623 53.5091 25.8873C54.5368 28.5415 54.5368 30.7873 53.5091 32.6248Z" fill="#0E0F23"/>
<path fill-rule="evenodd" clip-rule="evenodd" d="M52.0703 31.8082C49.1926 35.8916 39.1207 33.8499 29.46 27.1124C19.5937 20.3749 13.8383 11.7999 16.716 7.71664C19.5937 3.63324 29.6655 5.67494 39.3263 12.4124C48.987 19.1499 54.7424 27.7249 52.0703 31.8082ZM43.0261 25.6832C41.5873 27.7249 36.6542 26.7041 31.721 23.4374C26.9934 20.1707 24.1157 15.8832 25.5546 13.8416C26.9934 11.7999 31.9266 12.8207 36.8597 16.0874C41.5873 19.3541 44.465 23.6416 43.0261 25.6832Z" fill="white"/>
<path d="M14.4551 11.3912C14.4551 11.1871 14.2496 10.9829 14.044 11.1871C13.8385 11.3912 13.6329 11.3912 13.6329 11.5954C13.8385 12.2079 14.044 12.6162 14.044 13.0246C14.044 13.2287 14.2496 13.4329 14.4551 13.2287C14.6607 13.2287 14.8662 13.0246 14.6607 12.8204C14.6607 12.4121 14.6607 12.0037 14.4551 11.3912Z" fill="white"/>
<path d="M15.4828 14.6579C15.4828 14.4537 15.2772 14.2495 15.0717 14.4537C14.8661 14.6579 14.8661 14.6579 14.8661 14.862C17.1272 19.9662 21.8548 25.4787 28.0212 29.562C28.2267 29.7662 28.4323 29.562 28.6378 29.562C28.8434 29.3579 28.6378 29.1537 28.6378 28.9495C22.2658 24.8662 17.7438 19.5579 15.4828 14.6579Z" fill="white"/>
<path d="M40.3542 34.6665C40.1487 34.6665 39.9431 34.6665 39.9431 34.8707C39.9431 35.0748 39.9431 35.279 40.1487 35.279C40.7653 35.4832 41.5875 35.6873 42.2041 35.8915C42.4097 35.8915 42.6152 35.8915 42.6152 35.6873C42.6152 35.4832 42.6152 35.279 42.4097 35.279C41.793 35.0748 40.9709 34.8707 40.3542 34.6665Z" fill="white"/>
<path d="M44.0538 35.4829C43.8482 35.4829 43.6427 35.6871 43.6427 35.8913C43.6427 36.0954 43.8482 36.2996 44.0538 36.2996C45.6982 36.5038 47.5481 36.7079 48.987 36.5038C49.1925 36.5038 49.398 36.2996 49.398 36.0954C49.398 35.8913 49.1925 35.6871 48.987 35.6871C47.3426 35.8913 45.6982 35.6871 44.0538 35.4829Z" fill="white"/>
<path d="M80.4432 38.1522C78.832 38.1522 77.3819 37.8806 76.0929 37.338C74.8039 36.7727 73.7911 35.9814 73.0546 34.964C72.318 33.9465 71.9497 32.7595 71.9497 31.4029H76.1619C76.254 32.4203 76.6568 33.2569 77.3704 33.9126C78.1069 34.5683 79.1312 34.8961 80.4432 34.8961C81.8013 34.8961 82.8601 34.5796 83.6196 33.9465C84.3792 33.2908 84.759 32.4543 84.759 31.4368C84.759 30.6455 84.5173 30.0011 84.034 29.5037C83.5736 29.0063 82.9867 28.6219 82.2731 28.3506C81.5826 28.0793 80.6158 27.7853 79.3729 27.4688C77.8077 27.0618 76.5302 26.6548 75.5405 26.2479C74.5737 25.8183 73.7451 25.1626 73.0546 24.2808C72.364 23.399 72.0188 22.2233 72.0188 20.7537C72.0188 19.3971 72.364 18.2101 73.0546 17.1926C73.7451 16.1752 74.7118 15.3951 75.9548 14.8525C77.1977 14.3099 78.6363 14.0386 80.2706 14.0386C82.5954 14.0386 84.4943 14.6151 85.9674 15.7682C87.4639 16.8987 88.2919 18.4588 88.4529 20.4484H84.103C84.034 19.5893 83.6196 18.8545 82.8601 18.244C82.1005 17.6335 81.0992 17.3283 79.8563 17.3283C78.7284 17.3283 77.8077 17.6109 77.0942 18.1762C76.3806 18.7414 76.0238 19.5554 76.0238 20.618C76.0238 21.3415 76.2425 21.9407 76.6798 22.4155C77.1402 22.8677 77.7156 23.2295 78.4062 23.5008C79.0967 23.7721 80.0404 24.066 81.2373 24.3826C82.8255 24.8121 84.1145 25.2417 85.1043 25.6713C86.117 26.1009 86.9687 26.7679 87.6589 27.6723C88.3729 28.5541 88.7299 29.7411 88.7299 31.2333C88.7299 32.4316 88.3959 33.5621 87.7279 34.6248C87.0839 35.6875 86.1286 36.5466 84.8626 37.2023C83.6196 37.8354 82.1465 38.1522 80.4432 38.1522Z" fill="#0E0F23"/>
<path d="M110.603 19.2275V37.9145H106.667V35.7101C106.045 36.4788 105.228 37.0893 104.215 37.5415C103.225 37.9711 102.167 38.1862 101.039 38.1862C99.5429 38.1862 98.1959 37.8806 96.9989 37.2702C95.8249 36.6597 94.8929 35.7553 94.2029 34.557C93.5349 33.3587 93.2009 31.9116 93.2009 30.2159V19.2275H97.1029V29.6393C97.1029 31.3125 97.5289 32.6012 98.3799 33.5056C99.2319 34.3874 100.394 34.8283 101.867 34.8283C103.341 34.8283 104.503 34.3874 105.355 33.5056C106.229 32.6012 106.667 31.3125 106.667 29.6393V19.2275H110.603Z" fill="#0E0F23"/>
<path d="M122.701 38.2198C121.205 38.2198 119.858 37.9593 118.662 37.4393C117.488 36.8967 116.555 36.1732 115.865 35.2688C115.174 34.3418 114.806 33.313 114.76 32.1825H118.834C118.903 32.9739 119.283 33.6409 119.974 34.1835C120.687 34.7035 121.573 34.9636 122.632 34.9636C123.737 34.9636 124.589 34.7601 125.187 34.3531C125.809 33.9235 126.119 33.3809 126.119 32.7252C126.119 32.0243 125.774 31.5042 125.083 31.1651C124.416 30.826 123.346 30.4529 121.873 30.0459C120.445 29.6615 119.283 29.2885 118.385 28.9267C117.488 28.565 116.705 28.011 116.038 27.2649C115.393 26.5188 115.071 25.5353 115.071 24.3143C115.071 23.3195 115.37 22.4151 115.969 21.6011C116.567 20.7646 117.419 20.1089 118.523 19.6341C119.651 19.1593 120.94 18.9219 122.39 18.9219C124.554 18.9219 126.292 19.4645 127.604 20.5498C128.939 21.6124 129.652 23.0708 129.745 24.9248H125.809C125.739 24.0882 125.394 23.4212 124.773 22.9238C124.151 22.4264 123.311 22.1777 122.252 22.1777C121.217 22.1777 120.422 22.3699 119.87 22.7542C119.318 23.1386 119.041 23.6473 119.041 24.2804C119.041 24.7778 119.225 25.1961 119.594 25.5353C119.962 25.8744 120.411 26.1457 120.94 26.3492C121.47 26.5301 122.252 26.7675 123.288 27.0614C124.669 27.4232 125.797 27.7962 126.672 28.1806C127.569 28.5424 128.34 29.085 128.985 29.8085C129.629 30.532 129.963 31.4929 129.986 32.6913C129.986 33.7539 129.687 34.7035 129.089 35.5401C128.49 36.3767 127.638 37.0323 126.534 37.5072C125.452 37.982 124.174 38.2198 122.701 38.2198Z" fill="#0E0F23"/>
<path d="M144.079 18.9221C145.529 18.9221 146.818 19.2273 147.946 19.8378C149.097 20.4482 149.995 21.3526 150.639 22.551C151.307 23.7493 151.64 25.1963 151.64 26.892V37.9143H147.739V27.4686C147.739 25.7955 147.313 24.518 146.461 23.6362C145.61 22.7318 144.447 22.2796 142.974 22.2796C141.501 22.2796 140.327 22.7318 139.453 23.6362C138.601 24.518 138.175 25.7955 138.175 27.4686V37.9143H134.239V12.8174H138.175V21.3979C138.843 20.6065 139.683 19.996 140.696 19.5665C141.731 19.1369 142.859 18.9221 144.079 18.9221Z" fill="#0E0F23"/>
<path d="M158.664 16.7513C157.95 16.7513 157.352 16.5139 156.868 16.0391C156.385 15.5643 156.143 14.9765 156.143 14.2756C156.143 13.5747 156.385 12.9868 156.868 12.512C157.352 12.0372 157.95 11.7998 158.664 11.7998C159.354 11.7998 159.941 12.0372 160.424 12.512C160.908 12.9868 161.149 13.5747 161.149 14.2756C161.149 14.9765 160.908 15.5643 160.424 16.0391C159.941 16.5139 159.354 16.7513 158.664 16.7513ZM160.597 19.2271V37.9141H156.661V19.2271H160.597Z" fill="#0E0F23"/>
<path d="M173.671 38.1522C172.06 38.1522 170.61 37.8806 169.321 37.338C168.032 36.7727 167.019 35.9814 166.283 34.964C165.546 33.9465 165.178 32.7595 165.178 31.4029H169.39C169.482 32.4203 169.885 33.2569 170.598 33.9126C171.335 34.5683 172.359 34.8961 173.671 34.8961C175.029 34.8961 176.088 34.5796 176.848 33.9465C177.607 33.2908 177.987 32.4543 177.987 31.4368C177.987 30.6455 177.745 30.0011 177.262 29.5037C176.802 29.0063 176.215 28.6219 175.501 28.3506C174.811 28.0793 173.844 27.7853 172.601 27.4688C171.036 27.0618 169.758 26.6548 168.768 26.2479C167.802 25.8183 166.973 25.1626 166.283 24.2808C165.592 23.399 165.247 22.2233 165.247 20.7537C165.247 19.3971 165.592 18.2101 166.283 17.1926C166.973 16.1752 167.94 15.3951 169.183 14.8525C170.426 14.3099 171.864 14.0386 173.499 14.0386C175.823 14.0386 177.722 14.6151 179.195 15.7682C180.692 16.8987 181.52 18.4588 181.681 20.4484H177.331C177.262 19.5893 176.848 18.8545 176.088 18.244C175.328 17.6335 174.327 17.3283 173.084 17.3283C171.956 17.3283 171.036 17.6109 170.322 18.1762C169.609 18.7414 169.252 19.5554 169.252 20.618C169.252 21.3415 169.471 21.9407 169.908 22.4155C170.368 22.8677 170.944 23.2295 171.634 23.5008C172.325 23.7721 173.268 24.066 174.465 24.3826C176.054 24.8121 177.343 25.2417 178.332 25.6713C179.345 26.1009 180.197 26.7679 180.887 27.6723C181.601 28.5541 181.958 29.7411 181.958 31.2333C181.958 32.4316 181.624 33.5621 180.956 34.6248C180.312 35.6875 179.357 36.5466 178.091 37.2023C176.848 37.8354 175.375 38.1522 173.671 38.1522Z" fill="#0E0F23"/>
<path d="M212.151 19.2275L206.247 37.9145H202.104L198.272 24.1112L194.439 37.9145H190.296L184.358 19.2275H188.363L192.333 34.2517L196.373 19.2275H200.481L204.348 34.1839L208.284 19.2275H212.151Z" fill="#0E0F23"/>
<path d="M213.781 28.4858C213.781 26.6092 214.172 24.9474 214.955 23.5004C215.76 22.0533 216.842 20.9342 218.2 20.1428C219.581 19.3289 221.1 18.9219 222.758 18.9219C224.254 18.9219 225.554 19.2158 226.659 19.8037C227.787 20.3689 228.685 21.0811 229.352 21.9403V19.2271H233.323V37.9141H229.352V35.1331C228.685 36.0149 227.776 36.7497 226.625 37.3376C225.474 37.9254 224.162 38.2198 222.689 38.2198C221.054 38.2198 219.558 37.8124 218.2 36.9984C216.842 36.1619 215.76 35.0088 214.955 33.5391C214.172 32.0469 213.781 30.3624 213.781 28.4858ZM229.352 28.5537C229.352 27.2649 229.076 26.1457 228.524 25.1961C227.994 24.2465 227.292 23.523 226.418 23.0256C225.543 22.5281 224.599 22.2794 223.586 22.2794C222.574 22.2794 221.63 22.5281 220.755 23.0256C219.881 23.5004 219.167 24.2126 218.615 25.1622C218.085 26.0892 217.82 27.1971 217.82 28.4858C217.82 29.7746 218.085 30.9051 218.615 31.8773C219.167 32.8495 219.881 33.5957 220.755 34.1157C221.653 34.6131 222.597 34.8618 223.586 34.8618C224.599 34.8618 225.543 34.6131 226.418 34.1157C227.292 33.6183 227.994 32.8948 228.524 31.9451C229.076 30.9729 229.352 29.8424 229.352 28.5537Z" fill="#0E0F23"/>
<path d="M242.429 21.9742C243.096 21.115 244.005 20.3915 245.156 19.8037C246.307 19.2158 247.608 18.9219 249.058 18.9219C250.715 18.9219 252.223 19.3289 253.581 20.1428C254.962 20.9342 256.043 22.0533 256.826 23.5004C257.609 24.9474 258 26.6092 258 28.4858C258 30.3624 257.609 32.0469 256.826 33.5391C256.043 35.0088 254.962 36.1619 253.581 36.9984C252.223 37.8124 250.715 38.2198 249.058 38.2198C247.608 38.2198 246.319 37.9367 245.191 37.3715C244.063 36.7836 243.142 36.0601 242.429 35.201V46.7998H238.493V19.2271H242.429V21.9742ZM253.995 28.4858C253.995 27.1971 253.719 26.0892 253.166 25.1622C252.637 24.2126 251.923 23.5004 251.026 23.0256C250.151 22.5281 249.207 22.2794 248.194 22.2794C247.205 22.2794 246.261 22.5281 245.363 23.0256C244.489 23.523 243.775 24.2465 243.223 25.1961C242.693 26.1457 242.429 27.2649 242.429 28.5537C242.429 29.8424 242.693 30.9729 243.223 31.9451C243.775 32.8948 244.489 33.6183 245.363 34.1157C246.261 34.6131 247.205 34.8618 248.194 34.8618C249.207 34.8618 250.151 34.6131 251.026 34.1157C251.923 33.5957 252.637 32.8495 253.166 31.8773C253.719 30.9051 253.995 29.7746 253.995 28.4858Z" fill="#0E0F23"/>
<defs>
<linearGradient id="paint0_linear_93_1705" x1="22.7678" y1="3.0092" x2="30.2559" y2="28.8964" gradientUnits="userSpaceOnUse">
<stop stop-color="#03B8FF"/>
<stop offset="1" stop-color="#FA52A0"/>
</linearGradient>
<linearGradient id="paint1_linear_93_1705" x1="29.0115" y1="1.20266" x2="36.4998" y2="27.0902" gradientUnits="userSpaceOnUse">
<stop stop-color="#03B8FF"/>
<stop offset="1" stop-color="#FA52A0"/>
</linearGradient>
<linearGradient id="paint2_linear_93_1705" x1="16.5434" y1="4.80936" x2="24.0317" y2="30.6969" gradientUnits="userSpaceOnUse">
<stop stop-color="#03B8FF"/>
<stop offset="1" stop-color="#FA52A0"/>
</linearGradient>
</defs>
</svg>
