<svg width="202" height="202" viewBox="0 0 202 202" fill="none" xmlns="http://www.w3.org/2000/svg">
<path d="M155 0H47C21.0426 0 0 21.0426 0 47V155C0 180.957 21.0426 202 47 202H155C180.957 202 202 180.957 202 155V47C202 21.0426 180.957 0 155 0Z" fill="#3417AD"/>
<path d="M57.547 142.342C56.9878 142.342 56.4515 142.564 56.0561 142.959C55.6606 143.354 55.4383 143.891 55.438 144.45V144.45C55.4384 144.867 55.5624 145.274 55.7944 145.621C56.0264 145.968 56.3559 146.238 56.7413 146.397C57.1267 146.556 57.5507 146.598 57.9597 146.516C58.3686 146.434 58.7442 146.233 59.039 145.938C59.3337 145.643 59.5344 145.268 59.6156 144.859C59.6968 144.449 59.6549 144.026 59.4953 143.64C59.3356 143.255 59.0653 142.926 58.7185 142.694C58.3717 142.463 57.964 142.339 57.547 142.339V142.342Z" fill="white"/>
<path d="M152.891 47H136.016C135.457 47 134.92 47.2222 134.525 47.6177C134.129 48.0132 133.907 48.5497 133.907 49.109V51.309L131.092 51.292H131.079C130.52 51.2903 129.982 51.5109 129.585 51.9053C129.189 52.2997 128.965 52.8355 128.963 53.395C128.961 53.9545 129.182 54.4917 129.576 54.8885C129.971 55.2854 130.507 55.5093 131.066 55.511L133.907 55.528V77.414C128.384 80.893 123.399 78.89 118.137 76.77C114.67 75.37 111.083 73.93 107.504 74.379C106.375 74.521 103.328 74.963 100.104 75.431C97.048 75.874 93.887 76.331 92.804 76.47C92.5296 76.504 92.2511 76.4832 91.9847 76.4089C91.7183 76.3346 91.4693 76.2082 91.252 76.037C91.0268 75.8628 90.8383 75.6457 90.6976 75.3981C90.5568 75.1506 90.4666 74.8776 90.432 74.595C90.381 74.222 90.261 73.229 92.901 72C98.1777 69.5233 103.65 67.4857 109.261 65.908C109.802 65.7641 110.263 65.4114 110.544 64.9273C110.824 64.4433 110.901 63.8676 110.757 63.327C110.613 62.7864 110.26 62.325 109.776 62.0445C109.292 61.7639 108.717 61.6871 108.176 61.831C102.328 63.4734 96.6252 65.5956 91.126 68.176C89.5316 68.8278 88.1493 69.9093 87.133 71.3L65.984 77.069C63.759 77.628 62.618 76.743 62.291 75.727C62.2052 75.4265 62.1802 75.112 62.2174 74.8017C62.2546 74.4914 62.3532 74.1917 62.5076 73.92C62.662 73.6483 62.869 73.4101 63.1165 73.2194C63.364 73.0286 63.647 72.8891 63.949 72.809C65.604 72.179 69.555 70.439 74.555 68.239C81.181 65.323 89.427 61.693 96.002 59.026C103.816 55.856 106.202 55.378 114.197 55.407H114.204C114.764 55.4078 115.3 55.1863 115.697 54.7913C116.093 54.3962 116.316 53.86 116.317 53.3005C116.317 52.741 116.096 52.2042 115.701 51.808C115.306 51.4118 114.77 51.1888 114.21 51.188C105.677 51.159 102.716 51.75 94.417 55.117C87.784 57.807 79.507 61.45 72.856 64.377C68.096 66.477 63.984 68.277 62.437 68.87L62.417 68.877C60.7992 69.4225 59.4594 70.5802 58.6851 72.1019C57.9109 73.6235 57.7636 75.388 58.275 77.017C59.185 79.85 62.317 82.352 67.039 81.153L67.075 81.143L86.382 75.88C86.7581 77.3857 87.6713 78.7022 88.9499 79.5819C90.2285 80.4616 91.7844 80.8439 93.325 80.657C94.452 80.515 97.491 80.074 100.709 79.607C103.773 79.162 106.941 78.707 108.03 78.565C110.523 78.252 113.456 79.433 116.561 80.683C119.851 82.008 123.599 83.518 127.656 83.517C129.81 83.522 131.941 83.0694 133.907 82.189V82.858C133.907 83.135 133.962 83.4092 134.068 83.6651C134.174 83.921 134.329 84.1535 134.525 84.3493C134.721 84.5451 134.953 84.7005 135.209 84.8065C135.465 84.9124 135.739 84.967 136.016 84.967H152.891C153.168 84.967 153.442 84.9124 153.698 84.8065C153.954 84.7005 154.186 84.5451 154.382 84.3493C154.578 84.1535 154.734 83.921 154.84 83.6651C154.945 83.4092 155 83.135 155 82.858V49.109C155 48.5497 154.778 48.0132 154.382 47.6177C153.987 47.2222 153.45 47 152.891 47V47ZM150.781 80.75H138.125V51.219H150.781V80.75Z" fill="white"/>
<path d="M144.453 59.6569C145.012 59.6569 145.549 59.4347 145.944 59.0392C146.34 58.6437 146.562 58.1073 146.562 57.5479V57.5479C146.562 57.1309 146.438 56.7233 146.206 56.3768C145.974 56.0302 145.644 55.7602 145.259 55.6009C144.873 55.4416 144.449 55.4001 144.04 55.4817C143.631 55.5633 143.256 55.7643 142.961 56.0593C142.666 56.3544 142.466 56.7302 142.384 57.1392C142.303 57.5483 142.345 57.9722 142.505 58.3575C142.664 58.7427 142.935 59.072 143.281 59.3036C143.628 59.5353 144.036 59.6589 144.453 59.6589V59.6569Z" fill="white"/>
<path d="M86.234 115.765C88.6126 115.764 90.9558 115.188 93.0639 114.086C95.1719 112.984 96.9824 111.389 98.341 109.437H106.134C106.693 109.437 107.23 109.214 107.625 108.819L111.225 105.219H113.697L117.297 108.819C117.692 109.214 118.229 109.437 118.788 109.437H122.088C122.647 109.437 123.184 109.214 123.579 108.819L129.907 102.491C130.303 102.095 130.525 101.559 130.525 101V94.6718C130.525 94.1125 130.302 93.5762 129.907 93.1808C129.512 92.7853 128.975 92.563 128.416 92.5628H98.336C96.885 90.4799 94.9214 88.8064 92.6349 87.7039C90.3484 86.6014 87.8163 86.1071 85.283 86.2688C82.7497 86.4304 80.301 87.2427 78.1732 88.6269C76.0454 90.0112 74.3105 91.9208 73.1362 94.1712C71.9618 96.4216 71.3875 98.9369 71.4689 101.474C71.5503 104.011 72.2845 106.484 73.6007 108.655C74.9169 110.825 76.7705 112.62 78.9826 113.865C81.1948 115.11 83.6905 115.764 86.229 115.763L86.234 115.765ZM126.312 96.7808V100.126L121.22 105.218H119.669L116.069 101.618C115.674 101.222 115.137 101 114.578 101H110.359C109.8 101 109.263 101.222 108.868 101.618L105.268 105.218H100.39C101.213 102.466 101.213 99.5329 100.39 96.7808H126.312ZM86.234 90.4528C88.32 90.4528 90.3591 91.0713 92.0936 92.2303C93.828 93.3892 95.1799 95.0364 95.9781 96.9636C96.7764 98.8908 96.9853 101.011 96.5783 103.057C96.1714 105.103 95.1669 106.983 93.6918 108.458C92.2168 109.933 90.3375 110.937 88.2916 111.344C86.2457 111.751 84.125 111.542 82.1978 110.744C80.2706 109.946 78.6234 108.594 77.4645 106.859C76.3055 105.125 75.687 103.086 75.687 101C75.6902 98.2035 76.8024 95.5227 78.7796 93.5454C80.7569 91.5682 83.4377 90.4559 86.234 90.4528V90.4528Z" fill="white"/>
<path d="M82.015 103.109C82.4324 103.109 82.8404 102.986 83.1875 102.754C83.5346 102.522 83.8052 102.193 83.9651 101.807C84.125 101.422 84.1669 100.997 84.0856 100.588C84.0043 100.179 83.8034 99.8027 83.5084 99.5075C83.2133 99.2123 82.8373 99.0113 82.428 98.9298C82.0187 98.8483 81.5944 98.89 81.2088 99.0497C80.8232 99.2094 80.4936 99.4798 80.2617 99.8268C80.0298 100.174 79.906 100.582 79.906 100.999V100.999C79.9059 101.276 79.9603 101.551 80.0663 101.807C80.1722 102.063 80.3275 102.295 80.5234 102.491C80.7192 102.687 80.9518 102.842 81.2077 102.949C81.4636 103.055 81.738 103.109 82.015 103.109V103.109Z" fill="white"/>
<path d="M122.638 55.4592C123.055 55.459 123.463 55.3352 123.809 55.1033C124.156 54.8714 124.426 54.542 124.586 54.1566C124.745 53.7712 124.787 53.3472 124.705 52.9382C124.624 52.5291 124.423 52.1534 124.128 51.8586C123.833 51.5637 123.457 51.363 123.048 51.2817C122.639 51.2004 122.215 51.2422 121.83 51.4018C121.444 51.5615 121.115 51.8318 120.883 52.1786C120.652 52.5254 120.528 52.9331 120.528 53.3502C120.528 53.6273 120.583 53.9016 120.689 54.1575C120.795 54.4135 120.95 54.646 121.146 54.8419C121.342 55.0377 121.575 55.193 121.831 55.299C122.087 55.4049 122.361 55.4593 122.638 55.4592V55.4592Z" fill="white"/>
<path d="M134.961 120.845L134.925 120.855L115.619 126.119C115.243 124.613 114.33 123.297 113.051 122.417C111.773 121.537 110.217 121.155 108.676 121.342C107.549 121.484 104.51 121.925 101.292 122.392C98.228 122.837 95.06 123.292 93.971 123.434C91.479 123.746 88.545 122.566 85.44 121.316C80.516 119.334 74.564 116.937 68.094 119.807V119.141C68.0945 118.863 68.0403 118.589 67.9345 118.332C67.8287 118.076 67.6734 117.843 67.4774 117.647C67.2814 117.45 67.0486 117.295 66.7923 117.188C66.5361 117.082 66.2614 117.028 65.984 117.028H49.11C48.8326 117.028 48.5579 117.082 48.3017 117.188C48.0454 117.295 47.8126 117.45 47.6167 117.647C47.4207 117.843 47.2653 118.076 47.1595 118.332C47.0537 118.589 46.9995 118.863 47 119.141V152.89C47 153.449 47.2222 153.986 47.6177 154.381C48.0132 154.777 48.5497 154.999 49.109 154.999H65.984C66.5433 154.999 67.0798 154.777 67.4753 154.381C67.8708 153.986 68.093 153.449 68.093 152.89V150.69L70.908 150.707H70.921C71.198 150.708 71.4725 150.654 71.7288 150.549C71.985 150.444 72.2181 150.289 72.4145 150.094C72.611 149.898 72.7671 149.666 72.8739 149.411C72.9807 149.155 73.0362 148.881 73.037 148.604C73.0379 148.327 72.9841 148.052 72.8789 147.796C72.7737 147.54 72.619 147.307 72.4237 147.11C72.2285 146.914 71.9964 146.758 71.7408 146.651C71.4852 146.544 71.211 146.489 70.934 146.488L68.093 146.471V124.585C73.616 121.106 78.601 123.109 83.863 125.228C87.331 126.628 90.919 128.069 94.496 127.619C95.626 127.477 98.672 127.036 101.896 126.568C104.952 126.124 108.113 125.668 109.196 125.529C109.47 125.495 109.749 125.515 110.015 125.59C110.282 125.664 110.531 125.79 110.748 125.962C110.973 126.136 111.162 126.353 111.303 126.601C111.443 126.848 111.534 127.121 111.568 127.404C111.614 127.777 111.738 128.77 109.094 129.996C103.818 132.474 98.3457 134.513 92.734 136.091C92.4663 136.162 92.2152 136.285 91.9952 136.453C91.7751 136.622 91.5903 136.832 91.4513 137.071C91.1707 137.555 91.0938 138.131 91.2375 138.671C91.3813 139.212 91.7339 139.673 92.2178 139.954C92.7018 140.235 93.2774 140.312 93.818 140.168C99.6684 138.527 105.373 136.407 110.875 133.828C112.47 133.175 113.852 132.093 114.869 130.702L136.016 124.928C138.24 124.368 139.382 125.254 139.709 126.27C139.795 126.57 139.82 126.885 139.783 127.195C139.746 127.505 139.647 127.805 139.493 128.077C139.339 128.348 139.132 128.586 138.884 128.777C138.637 128.968 138.354 129.108 138.052 129.188C136.397 129.818 132.445 131.558 127.444 133.759C120.818 136.675 112.573 140.304 105.998 142.971C98.184 146.141 95.798 146.62 87.803 146.59H87.8C87.523 146.589 87.2486 146.644 86.9925 146.749C86.7364 146.855 86.5036 147.01 86.3075 147.206C85.9113 147.601 85.6883 148.137 85.6875 148.696C85.6867 149.256 85.9082 149.793 86.3032 150.189C86.6983 150.585 87.2345 150.808 87.794 150.809H88.304C96.45 150.809 99.456 150.179 107.587 146.879C114.219 144.189 122.497 140.546 129.147 137.619C133.908 135.519 138.02 133.719 139.566 133.126L139.587 133.119C141.205 132.573 142.545 131.416 143.319 129.894C144.093 128.372 144.24 126.608 143.729 124.979C142.819 122.147 139.687 119.645 134.965 120.843L134.961 120.845ZM51.219 150.781V121.25H63.875V150.781H51.219Z" fill="white"/>
<path d="M79.36 146.54C78.9427 146.54 78.5349 146.664 78.1881 146.896C77.8413 147.128 77.5712 147.458 77.4118 147.844C77.2525 148.229 77.2111 148.653 77.2929 149.063C77.3747 149.472 77.576 149.847 77.8714 150.142C78.1668 150.437 78.543 150.637 78.9523 150.718C79.3617 150.799 79.7858 150.757 80.171 150.596C80.5563 150.436 80.8853 150.165 81.1165 149.818C81.3477 149.47 81.4707 149.062 81.47 148.645C81.4689 148.086 81.2459 147.55 80.8501 147.156C80.4543 146.761 79.9179 146.54 79.3589 146.54H79.36Z" fill="white"/>
</svg>
