<svg width="202" height="202" viewBox="0 0 202 202" fill="none" xmlns="http://www.w3.org/2000/svg">
<path d="M155 0H47C21.0426 0 0 21.0426 0 47V155C0 180.957 21.0426 202 47 202H155C180.957 202 202 180.957 202 155V47C202 21.0426 180.957 0 155 0Z" fill="#3417AD"/>
<path d="M62.329 104.006C62.7524 104.007 63.1716 103.924 63.5628 103.762C63.9539 103.6 64.3091 103.362 64.608 103.062L88.108 79.5625L98.72 90.1745C99.0192 90.4738 99.3744 90.7113 99.7653 90.8734C100.156 91.0354 100.575 91.1188 100.999 91.1188C101.422 91.1188 101.841 91.0354 102.232 90.8734C102.623 90.7113 102.978 90.4738 103.277 90.1745L136.45 56.9995V62.1105C136.442 62.5384 136.52 62.9636 136.679 63.3612C136.837 63.7588 137.074 64.1208 137.374 64.4261C137.674 64.7314 138.031 64.9739 138.426 65.1395C138.821 65.305 139.245 65.3902 139.673 65.3902C140.101 65.3902 140.524 65.305 140.919 65.1395C141.314 64.9739 141.672 64.7314 141.972 64.4261C142.271 64.1208 142.508 63.7588 142.666 63.3612C142.825 62.9636 142.903 62.5384 142.895 62.1105V49.2215C142.895 49.1155 142.889 49.0095 142.879 48.9045C142.874 48.8515 142.864 48.8045 142.856 48.7495C142.848 48.6945 142.843 48.6495 142.833 48.5945C142.823 48.5395 142.804 48.4715 142.789 48.4095C142.778 48.3705 142.77 48.3295 142.758 48.2905C142.739 48.2255 142.715 48.1635 142.692 48.1005C142.679 48.0655 142.668 48.0295 142.653 47.9945C142.626 47.9295 142.595 47.8665 142.565 47.8045C142.55 47.7725 142.536 47.7405 142.52 47.7095C142.483 47.6405 142.443 47.5755 142.402 47.5095C142.388 47.4865 142.375 47.4625 142.36 47.4395C142.302 47.3535 142.241 47.2695 142.175 47.1885C142.034 47.0174 141.877 46.861 141.705 46.7215V46.7215C141.624 46.6565 141.541 46.5945 141.454 46.5365C141.431 46.5215 141.408 46.5085 141.384 46.4945C141.319 46.4535 141.253 46.4135 141.184 46.3765C141.153 46.3595 141.121 46.3465 141.089 46.3315C141.027 46.3005 140.964 46.2705 140.899 46.2435C140.865 46.2295 140.829 46.2185 140.793 46.2045C140.73 46.1815 140.668 46.1575 140.603 46.1385C140.564 46.1265 140.523 46.1185 140.484 46.1075C140.423 46.0925 140.362 46.0745 140.299 46.0635C140.236 46.0525 140.199 46.0475 140.144 46.0405C140.089 46.0335 140.044 46.0225 139.989 46.0175C139.889 46.0075 139.778 46.0015 139.672 46.0015H126.782C126.354 45.9939 125.929 46.0717 125.531 46.2303C125.134 46.3888 124.772 46.625 124.466 46.925C124.161 47.225 123.919 47.5828 123.753 47.9775C123.588 48.3722 123.502 48.7959 123.502 49.224C123.502 49.652 123.588 50.0757 123.753 50.4705C123.919 50.8652 124.161 51.223 124.466 51.523C124.772 51.8229 125.134 52.0591 125.531 52.2177C125.929 52.3762 126.354 52.454 126.782 52.4465H131.893L101.005 83.3365L90.389 72.7245C90.0899 72.4251 89.7347 72.1876 89.3437 72.0256C88.9528 71.8636 88.5337 71.7802 88.1105 71.7802C87.6873 71.7802 87.2683 71.8636 86.8773 72.0256C86.4864 72.1876 86.1312 72.4251 85.832 72.7245L60.05 98.5055C59.6 98.9563 59.2936 99.5304 59.1696 100.155C59.0457 100.78 59.1097 101.428 59.3535 102.016C59.5974 102.605 60.0102 103.108 60.5398 103.462C61.0694 103.816 61.692 104.005 62.329 104.005V104.006Z" fill="white"/>
<path d="M46 152.778C45.9997 153.201 46.0829 153.62 46.2448 154.011C46.4067 154.402 46.6441 154.758 46.9434 155.057C47.2427 155.357 47.5981 155.594 47.9893 155.756C48.3805 155.918 48.7997 156.001 49.223 156.001H75C75.4233 156.001 75.8425 155.918 76.2337 155.756C76.6249 155.594 76.9803 155.357 77.2796 155.057C77.5789 154.758 77.8163 154.402 77.9782 154.011C78.1401 153.62 78.2233 153.201 78.223 152.778V148.266H46V152.778Z" fill="white"/>
<path d="M75 134.085H49.223C48.7997 134.085 48.3805 134.168 47.9893 134.33C47.5981 134.492 47.2427 134.73 46.9434 135.029C46.6441 135.328 46.4067 135.684 46.2448 136.075C46.0829 136.466 45.9997 136.885 46 137.308V141.82H78.227V137.308C78.2273 136.885 78.1439 136.465 77.9818 136.074C77.8197 135.682 77.5819 135.327 77.2822 135.027C76.9824 134.728 76.6265 134.491 76.2349 134.329C75.8433 134.167 75.4237 134.085 75 134.085V134.085Z" fill="white"/>
<path d="M84.887 152.778C84.8867 153.201 84.9699 153.62 85.1318 154.011C85.2936 154.402 85.531 154.758 85.8304 155.057C86.1297 155.357 86.4851 155.594 86.8763 155.756C87.2674 155.918 87.6866 156.001 88.11 156.001H113.887C114.31 156.001 114.73 155.918 115.121 155.756C115.512 155.594 115.867 155.357 116.167 155.057C116.466 154.758 116.703 154.402 116.865 154.011C117.027 153.62 117.11 153.201 117.11 152.778V148.266H84.887V152.778Z" fill="white"/>
<path d="M123.774 134.085H156.001V141.819H123.774V134.085Z" fill="white"/>
<path d="M152.774 91.5454H126.997C126.574 91.5452 126.154 91.6283 125.763 91.7902C125.372 91.9521 125.017 92.1895 124.717 92.4888C124.418 92.7882 124.181 93.1436 124.019 93.5347C123.857 93.9259 123.774 94.3451 123.774 94.7684V99.2804H156.001V94.7684C156.001 94.3448 155.918 93.9252 155.756 93.5338C155.594 93.1424 155.356 92.7868 155.056 92.4874C154.756 92.188 154.401 91.9507 154.009 91.7891C153.617 91.6274 153.198 91.5446 152.774 91.5454V91.5454Z" fill="white"/>
<path d="M123.774 105.726H156.001V113.46H123.774V105.726Z" fill="white"/>
<path d="M123.774 119.905H156.001V127.639H123.774V119.905Z" fill="white"/>
<path d="M123.774 152.778C123.774 153.201 123.857 153.62 124.019 154.011C124.181 154.402 124.418 154.758 124.717 155.057C125.017 155.357 125.372 155.594 125.763 155.756C126.154 155.918 126.574 156.001 126.997 156.001H152.774C153.197 156.001 153.617 155.918 154.008 155.756C154.399 155.594 154.754 155.357 155.054 155.057C155.353 154.758 155.59 154.402 155.752 154.011C155.914 153.62 155.997 153.201 155.997 152.778V148.266H123.774V152.778Z" fill="white"/>
<path d="M84.887 134.085H117.114V141.819H84.887V134.085Z" fill="white"/>
<path d="M113.887 119.905H88.11C87.6866 119.905 87.2674 119.988 86.8763 120.15C86.4851 120.312 86.1297 120.549 85.8304 120.849C85.531 121.148 85.2936 121.503 85.1318 121.895C84.9699 122.286 84.8867 122.705 84.887 123.128V127.64H117.114V123.128C117.114 122.705 117.031 122.285 116.869 121.894C116.707 121.502 116.469 121.147 116.169 120.847C115.869 120.548 115.514 120.311 115.122 120.149C114.73 119.987 114.311 119.904 113.887 119.905Z" fill="white"/>
</svg>
