<svg width="202" height="202" viewBox="0 0 202 202" fill="none" xmlns="http://www.w3.org/2000/svg">
<path d="M155 0H47C21.0426 0 0 21.0426 0 47V155C0 180.957 21.0426 202 47 202H155C180.957 202 202 180.957 202 155V47C202 21.0426 180.957 0 155 0Z" fill="#3417AD"/>
<path d="M101 42C89.3309 42 77.9239 45.4603 68.2214 51.9433C58.5189 58.4263 50.9567 67.6408 46.4911 78.4217C42.0256 89.2025 40.8572 101.065 43.1337 112.51C45.4102 123.955 51.0294 134.468 59.2807 142.719C67.532 150.971 78.0448 156.59 89.4897 158.866C100.935 161.143 112.798 159.974 123.578 155.509C134.359 151.043 143.574 143.481 150.057 133.779C156.54 124.076 160 112.669 160 101C159.982 85.3578 153.76 70.3616 142.699 59.3009C131.638 48.2402 116.642 42.0183 101 42V42ZM101 152.625C90.7896 152.625 80.8084 149.597 72.3187 143.925C63.829 138.252 57.2121 130.189 53.3047 120.756C49.3974 111.323 48.375 100.943 50.367 90.9285C52.3589 80.9142 57.2758 71.7155 64.4956 64.4956C71.7155 57.2757 80.9142 52.3589 90.9285 50.367C100.943 48.375 111.323 49.3973 120.756 53.3047C130.189 57.2121 138.252 63.829 143.925 72.3187C149.597 80.8084 152.625 90.7895 152.625 101C152.61 114.687 147.166 127.809 137.488 137.488C127.809 147.166 114.687 152.61 101 152.625V152.625Z" fill="white"/>
<path d="M101.001 97.313C95.001 97.313 89.939 93.935 89.939 89.938C89.939 85.941 95.006 82.563 101.002 82.563C104.128 82.4712 107.184 83.5021 109.616 85.4691C109.978 85.7908 110.4 86.038 110.858 86.1967C111.316 86.3553 111.8 86.4223 112.284 86.3937C112.767 86.3651 113.241 86.2415 113.676 86.03C114.112 85.8185 114.502 85.5232 114.824 85.1611C115.146 84.7989 115.393 84.3769 115.552 83.9191C115.71 83.4614 115.777 82.9769 115.749 82.4933C115.72 82.0097 115.596 81.5364 115.385 81.1006C115.173 80.6647 114.878 80.2748 114.516 79.953C111.725 77.5747 108.32 76.0307 104.692 75.498V71.498C104.692 70.5201 104.303 69.5821 103.612 68.8906C102.92 68.1991 101.982 67.8105 101.004 67.8105C100.027 67.8105 99.0886 68.1991 98.397 68.8906C97.7055 69.5821 97.317 70.5201 97.317 71.498V75.48C88.906 76.855 82.563 82.813 82.563 89.938C82.563 98.073 90.838 104.688 101.001 104.688C107.001 104.688 112.064 108.066 112.064 112.063C112.064 116.06 106.997 119.438 101.002 119.438C97.8756 119.53 94.8198 118.499 92.388 116.532C91.6564 115.882 90.6966 115.55 89.7198 115.608C88.7431 115.665 87.8293 116.109 87.1795 116.841C86.5297 117.572 86.1972 118.532 86.255 119.509C86.3129 120.485 86.7564 121.399 87.488 122.049C90.2783 124.429 93.6826 125.976 97.311 126.511V130.501C97.3269 131.469 97.7224 132.391 98.4122 133.07C99.102 133.748 100.031 134.128 100.998 134.128C101.966 134.128 102.895 133.748 103.585 133.07C104.275 132.391 104.67 131.469 104.686 130.501V126.519C113.094 125.147 119.436 119.188 119.436 112.064C119.438 103.928 111.163 97.313 101.001 97.313Z" fill="white"/>
</svg>
