<svg width="202" height="202" viewBox="0 0 202 202" fill="none" xmlns="http://www.w3.org/2000/svg">
<path d="M155 0H47C21.0426 0 0 21.0426 0 47V155C0 180.957 21.0426 202 47 202H155C180.957 202 202 180.957 202 155V47C202 21.0426 180.957 0 155 0Z" fill="#3417AD"/>
<path d="M154.438 148.5C153.493 148.499 152.587 148.124 151.92 147.456C151.252 146.788 150.876 145.882 150.876 144.937V57.063C150.874 55.4888 150.248 53.9797 149.134 52.8665C148.021 51.7534 146.512 51.1271 144.938 51.125H57.063C55.4888 51.1271 53.9797 51.7534 52.8665 52.8665C51.7534 53.9797 51.1271 55.4888 51.125 57.063V116.438C51.1093 117.373 50.7271 118.263 50.0607 118.919C49.3943 119.574 48.4971 119.941 47.5625 119.941C46.6279 119.941 45.7307 119.574 45.0643 118.919C44.3979 118.263 44.0157 117.373 44 116.438V57.063C44.0026 53.5993 45.3798 50.2782 47.829 47.829C50.2782 45.3798 53.5993 44.0026 57.063 44H144.938C148.402 44.0029 151.722 45.3802 154.171 47.8293C156.62 50.2785 157.997 53.5995 158 57.063V144.938C157.999 145.883 157.624 146.788 156.956 147.456C156.288 148.124 155.383 148.499 154.438 148.5V148.5Z" fill="white"/>
<path d="M154.438 67.75H47.563C46.6285 67.7343 45.7376 67.3521 45.0823 66.6857C44.4269 66.0193 44.0597 65.1221 44.0597 64.1875C44.0597 63.2529 44.4269 62.3557 45.0823 61.6893C45.7376 61.0229 46.6285 60.6407 47.563 60.625H154.438C155.373 60.6407 156.263 61.0229 156.919 61.6893C157.574 62.3557 157.941 63.2529 157.941 64.1875C157.941 65.1221 157.574 66.0193 156.919 66.6857C156.263 67.3521 155.373 67.7343 154.438 67.75V67.75Z" fill="white"/>
<path d="M83.187 144.843C82.2423 144.843 81.3364 144.467 80.6685 143.799C80.0006 143.131 79.6253 142.225 79.625 141.28V92.6881C79.6522 89.8715 80.7902 87.1796 82.7916 85.1975C84.7929 83.2154 87.4958 82.1035 90.3125 82.1035C93.1292 82.1035 95.8321 83.2154 97.8334 85.1975C99.8348 87.1796 100.973 89.8715 101 92.6881V121.188C101.008 121.661 100.922 122.131 100.746 122.57C100.571 123.009 100.31 123.409 99.9779 123.746C99.6463 124.083 99.2509 124.351 98.8148 124.534C98.3786 124.717 97.9104 124.811 97.4375 124.811C96.9646 124.811 96.4964 124.717 96.0602 124.534C95.6241 124.351 95.2287 124.083 94.8971 123.746C94.5655 123.409 94.3043 123.009 94.1288 122.57C93.9534 122.131 93.8671 121.661 93.875 121.188V92.6881C93.8829 92.2153 93.7966 91.7456 93.6212 91.3064C93.4457 90.8672 93.1845 90.4674 92.8529 90.1302C92.5213 89.793 92.1259 89.5252 91.6898 89.3424C91.2536 89.1596 90.7854 89.0654 90.3125 89.0654C89.8396 89.0654 89.3714 89.1596 88.9352 89.3424C88.4991 89.5252 88.1037 89.793 87.7721 90.1302C87.4405 90.4674 87.1793 90.8672 87.0038 91.3064C86.8284 91.7456 86.7421 92.2153 86.75 92.6881V141.28C86.7497 142.225 86.3743 143.131 85.7061 143.799C85.038 144.467 84.1319 144.843 83.187 144.843Z" fill="white"/>
<path d="M97.438 136.625C96.4933 136.625 95.5873 136.249 94.9192 135.581C94.2511 134.913 93.8755 134.008 93.875 133.063V121.188C93.8614 119.776 94.1277 118.375 94.6587 117.066C95.1896 115.757 95.9747 114.567 96.9685 113.564C97.9623 112.56 99.1451 111.764 100.449 111.22C101.752 110.676 103.15 110.396 104.563 110.396C105.975 110.396 107.373 110.676 108.676 111.22C109.98 111.764 111.163 112.56 112.157 113.564C113.15 114.567 113.935 115.757 114.466 117.066C114.997 118.375 115.264 119.776 115.25 121.188V125.938C115.25 126.883 114.875 127.789 114.207 128.457C113.538 129.125 112.632 129.5 111.688 129.5C110.743 129.5 109.837 129.125 109.168 128.457C108.5 127.789 108.125 126.883 108.125 125.938V121.188C108.109 120.253 107.727 119.362 107.061 118.707C106.394 118.052 105.497 117.685 104.563 117.685C103.628 117.685 102.731 118.052 102.064 118.707C101.398 119.362 101.016 120.253 101 121.188V133.063C100.999 134.007 100.624 134.913 99.9561 135.581C99.2883 136.249 98.3826 136.624 97.438 136.625V136.625Z" fill="white"/>
<path d="M111.688 141.375C110.743 141.375 109.837 140.999 109.169 140.331C108.501 139.663 108.125 138.757 108.125 137.812V125.937C108.111 124.525 108.378 123.124 108.909 121.815C109.44 120.506 110.225 119.316 111.218 118.313C112.212 117.309 113.395 116.513 114.699 115.969C116.002 115.425 117.4 115.146 118.813 115.146C120.225 115.146 121.623 115.425 122.926 115.969C124.23 116.513 125.413 117.309 126.407 118.313C127.4 119.316 128.185 120.506 128.716 121.815C129.247 123.124 129.514 124.525 129.5 125.937V135.437C129.484 136.371 129.102 137.262 128.436 137.918C127.769 138.573 126.872 138.94 125.938 138.94C125.003 138.94 124.106 138.573 123.439 137.918C122.773 137.262 122.391 136.371 122.375 135.437V125.937C122.359 125.002 121.977 124.111 121.311 123.456C120.644 122.801 119.747 122.434 118.813 122.434C117.878 122.434 116.981 122.801 116.314 123.456C115.648 124.111 115.266 125.002 115.25 125.937V137.812C115.25 138.757 114.874 139.663 114.206 140.331C113.539 140.999 112.633 141.374 111.688 141.375V141.375Z" fill="white"/>
<path d="M140.187 158C139.242 157.999 138.337 157.624 137.669 156.956C137.001 156.288 136.626 155.382 136.625 154.438V135.438C136.633 134.965 136.547 134.495 136.371 134.056C136.196 133.617 135.935 133.217 135.603 132.88C135.271 132.543 134.876 132.275 134.44 132.092C134.004 131.909 133.535 131.815 133.063 131.815C132.59 131.815 132.121 131.909 131.685 132.092C131.249 132.275 130.854 132.543 130.522 132.88C130.19 133.217 129.929 133.617 129.754 134.056C129.578 134.495 129.492 134.965 129.5 135.438V142.563C129.508 143.036 129.422 143.505 129.246 143.945C129.071 144.384 128.81 144.784 128.478 145.121C128.146 145.458 127.751 145.726 127.315 145.909C126.879 146.091 126.41 146.186 125.938 146.186C125.465 146.186 124.996 146.091 124.56 145.909C124.124 145.726 123.729 145.458 123.397 145.121C123.065 144.784 122.804 144.384 122.629 143.945C122.453 143.505 122.367 143.036 122.375 142.563V135.438C122.361 134.026 122.628 132.625 123.159 131.316C123.69 130.007 124.475 128.817 125.468 127.814C126.462 126.81 127.645 126.014 128.949 125.47C130.252 124.926 131.65 124.646 133.063 124.646C134.475 124.646 135.873 124.926 137.176 125.47C138.48 126.014 139.663 126.81 140.657 127.814C141.65 128.817 142.435 130.007 142.966 131.316C143.497 132.625 143.764 134.026 143.75 135.438V154.438C143.749 155.383 143.374 156.288 142.706 156.956C142.038 157.624 141.132 158 140.187 158V158Z" fill="white"/>
<path d="M69.46 158C68.7644 158.001 68.084 157.797 67.5031 157.414C66.9221 157.032 66.4663 156.487 66.192 155.848C62.824 148.034 59.792 145.218 57.575 143.161C55.571 141.299 53.5 139.38 53.5 135.438C53.5 134.051 54.132 127.125 66.563 127.125C75.294 127.125 81.977 133.666 86.052 139.157C86.6145 139.916 86.8525 140.867 86.7135 141.802C86.5745 142.736 86.0701 143.577 85.311 144.14C84.552 144.703 83.6005 144.94 82.666 144.802C81.7315 144.663 80.8905 144.158 80.328 143.399C77.792 139.984 72.633 134.25 66.562 134.25C61.598 134.25 60.591 135.618 60.586 135.632C60.624 136.159 60.624 136.268 62.419 137.932C64.946 140.279 68.77 143.827 72.731 153.023C72.9651 153.565 73.0608 154.157 73.0094 154.745C72.958 155.333 72.7611 155.899 72.4365 156.393C72.1119 156.886 71.6697 157.291 71.1498 157.571C70.6298 157.85 70.0485 157.997 69.458 157.996L69.46 158Z" fill="white"/>
</svg>
